<svg width="18" height="17" viewBox="0 0 18 17" fill="none" xmlns="http://www.w3.org/2000/svg">
<path d="M8.53125 0C3.82725 0 0 3.82725 0 8.53125C0 13.2353 3.82725 17.0625 8.53125 17.0625C13.2353 17.0625 17.0625 13.2353 17.0625 8.53125C17.0625 3.82725 13.2353 0 8.53125 0ZM8.53125 1.3125C12.5258 1.3125 15.75 4.53666 15.75 8.53125C15.75 12.5258 12.5258 15.75 8.53125 15.75C4.53666 15.75 1.3125 12.5258 1.3125 8.53125C1.3125 4.53666 4.53666 1.3125 8.53125 1.3125ZM7.875 4.59375V7.875H4.59375V9.1875H7.875V12.4688H9.1875V9.1875H12.4688V7.875H9.1875V4.59375H7.875Z" fill="white"/>
</svg>
