<svg width="24" height="24" viewBox="0 0 24 24" fill="none" xmlns="http://www.w3.org/2000/svg">
<path fill-rule="evenodd" clip-rule="evenodd" d="M2.82821 0.766476C3.09067 0.504409 3.40583 0.301114 3.7528 0.170061C4.09978 0.0390087 4.47064 -0.0168078 4.84082 0.00631052C5.21099 0.0294288 5.57203 0.130954 5.9 0.304158C6.22797 0.477362 6.51539 0.71829 6.74321 1.01098L9.43571 4.46998C9.92921 5.10448 10.1032 5.93098 9.90821 6.71098L9.08771 9.99598C9.04558 10.1661 9.04802 10.3443 9.09479 10.5132C9.14156 10.6822 9.23107 10.8362 9.35471 10.9605L13.0402 14.646C13.1646 14.7699 13.3189 14.8595 13.4882 14.9063C13.6574 14.9531 13.8358 14.9554 14.0062 14.913L17.2897 14.0925C17.6747 13.9968 18.0763 13.9896 18.4645 14.0714C18.8526 14.1533 19.2171 14.322 19.5307 14.565L22.9897 17.256C24.2332 18.2235 24.3472 20.061 23.2342 21.1725L21.6832 22.7235C20.5732 23.8335 18.9142 24.321 17.3677 23.7765C13.4087 22.3853 9.81452 20.1191 6.85271 17.1465C3.88027 14.1851 1.61403 10.5914 0.222706 6.63298C-0.320294 5.08798 0.167206 3.42748 1.27721 2.31748L2.82821 0.766476Z" fill="white"/>
</svg>
